# xmcd
#
# Track frame offsets:
#	150
#	19527
#	42705
#	65910
#	88775
#	115147
#	133332
#	162955
#	181172
#	206765
#	235417
#	260087
#	297177
#
# Disc length: 4329 seconds
# Revision: 15
# Processed by: cddbd v1.5.2PL0 Copyright (c) Steve Scherf et al.
# Submitted via: dBpowerAMP V12.0
#
DISCID=c910e70d
DTITLE=中島美雪 - 中島みゆき ~ Best Selection II [dBP-LITE02-1-FLAC@]
DYEAR=1992
DGENRE=Japanese Pop
TTITLE0=時代
TTITLE1=トーキョー迷子
TTITLE2=涙-Made In Tears-
TTITLE3=春なのに
TTITLE4=黄砂に吹かれて
TTITLE5=まつりばやし
TTITLE6=シュガー
TTITLE7=やまねこ
TTITLE8=with
TTITLE9=Maybe
TTITLE10=あした
TTITLE11=歌姫
TTITLE12=世情
EXTD=
EXTT0=
EXTT1=
EXTT2=
EXTT3=
EXTT4=
EXTT5=
EXTT6=
EXTT7=
EXTT8=
EXTT9=
EXTT10=
EXTT11=
EXTT12=
PLAYORDER=
